<svg width="150" height="35" viewBox="0 0 150 35" fill="none" xmlns="http://www.w3.org/2000/svg">
<path d="M13.716 28.3404C18.311 28.3404 22.5606 26.0939 25.1172 22.2921L20.6258 19.2507C19.0711 21.5663 16.4799 22.9142 13.716 22.9142C11.5049 22.9142 9.43192 22.0502 7.84265 20.4949C6.28794 18.9397 5.42421 16.8314 5.42421 14.6195C5.42421 12.4076 6.28794 10.2993 7.84265 8.74403C9.43192 7.1542 11.5049 6.29017 13.716 6.29017C16.5145 6.29017 19.1057 7.67263 20.6258 9.98825L25.1518 6.9814C22.5951 3.14507 18.311 0.864014 13.716 0.864014C11.8849 0.864014 10.0884 1.24419 8.39544 1.96998C6.73709 2.66121 5.28602 3.62893 4.0077 4.90771C2.76393 6.15192 1.762 7.63807 1.07102 9.26246C0.345489 10.956 0 12.7532 0 14.6195C0 16.4858 0.345489 18.283 1.07102 19.9765C1.762 21.6009 2.76393 23.0525 4.0077 24.3313C5.28602 25.5755 6.73709 26.5778 8.39544 27.269C10.0884 27.9948 11.8849 28.3404 13.716 28.3404Z" fill="#FB923C"/>
<path d="M26.4382 9.91911V28.133H31.6552V8.19104L26.4382 9.91911Z" fill="#F38635"/>
<path d="M53.4605 14.6886C52.9768 13.5481 52.2513 12.4767 51.353 11.5781C50.4547 10.6795 49.4183 9.9537 48.2436 9.46984C46.9998 8.95142 45.7215 8.67493 44.4087 8.67493C43.0612 8.67493 41.7829 8.95142 40.5737 9.46984C39.399 9.9537 38.328 10.6795 37.4297 11.5781C36.5314 12.4767 35.8059 13.5135 35.3222 14.6886C34.804 15.9328 34.5621 17.2116 34.5621 18.525V33.2481L39.7445 34.9762V27.1999C39.9864 27.3727 40.2628 27.4764 40.5737 27.6146C41.7829 28.133 43.0612 28.375 44.4087 28.375C45.7215 28.375 46.9998 28.133 48.2436 27.6146C49.3837 27.1308 50.4547 26.405 51.353 25.5064C52.2513 24.6078 52.9768 23.5364 53.4605 22.3613C53.9788 21.1516 54.2552 19.8728 54.2552 18.525C54.2552 17.2116 53.9788 15.9328 53.4605 14.6886ZM44.4087 23.1908C41.8175 23.1908 39.7445 21.1171 39.7445 18.525C39.7445 15.9674 41.8175 13.8591 44.4087 13.8591C46.9653 13.8591 49.0728 15.9674 49.0728 18.525C49.0728 21.1171 46.9653 23.1908 44.4087 23.1908Z" fill="#EB7B2E"/>
<path d="M56.0614 9.91911V28.133H61.2783V8.19104L56.0614 9.91911Z" fill="#E36F27"/>
<path d="M79.3124 11.0942L84.1147 28.133H88.8134L97.4161 1.17505H91.681L86.5332 17.8682L81.869 1.17505H76.7557L72.0571 17.8682L66.9092 1.17505H61.1395L69.7077 28.133H74.4064L79.3124 11.0942Z" fill="#DA6421"/>
<path d="M104.395 28.2367C105.777 28.2367 107.089 27.9602 108.333 27.4418C109.508 26.8888 110.579 26.163 111.477 25.1953L107.85 21.7391C106.951 22.7068 105.707 23.2253 104.395 23.2253C102.702 23.2253 101.251 22.3612 100.387 21.0133H114.137V18.5249C114.137 15.8982 113.136 13.4789 111.27 11.6126C109.439 9.78085 106.986 8.77856 104.395 8.77856C101.803 8.77856 99.3504 9.78085 97.5193 11.6126C95.6882 13.4789 94.6517 15.8982 94.6517 18.5249C94.6517 21.117 95.6882 23.5709 97.5193 25.4026C99.3504 27.2344 101.803 28.2367 104.395 28.2367ZM108.402 16.0019H100.387C101.251 14.6886 102.702 13.79 104.395 13.79C106.088 13.79 107.573 14.6886 108.402 16.0019Z" fill="#D2581A"/>
<path d="M134.892 18.4904C134.892 17.1771 134.651 15.8637 134.132 14.6541C133.614 13.479 132.923 12.4421 132.025 11.5435C131.126 10.6104 130.055 9.91915 128.881 9.43529C127.672 8.91687 126.393 8.64037 125.046 8.64037C123.733 8.64037 122.42 8.91687 121.211 9.43529C120.934 9.53897 120.658 9.67722 120.382 9.81546V0L115.199 1.72808V18.4904C115.199 19.8383 115.476 21.1171 115.959 22.3267C116.478 23.5018 117.169 24.5732 118.067 25.4718C119 26.3704 120.036 27.0962 121.211 27.5801C122.42 28.0985 123.733 28.3404 125.046 28.3404C126.359 28.3404 127.672 28.0985 128.881 27.5801C130.055 27.0616 131.092 26.3704 132.025 25.4718C132.923 24.5732 133.614 23.5018 134.132 22.3267C134.651 21.1171 134.892 19.8383 134.892 18.4904ZM129.71 18.4904C129.71 21.0825 127.602 23.1562 125.046 23.1562C122.489 23.1562 120.382 21.0825 120.382 18.4904C120.382 15.9328 122.489 13.8246 125.046 13.8246C127.602 13.8246 129.71 15.9328 129.71 18.4904Z" fill="#CA4D13"/>
<path d="M135.593 28.3404H143.678C147.167 28.3404 150 25.5064 150 22.0156C150 18.5249 147.167 15.6563 143.678 15.6563H142.226C141.743 15.6563 141.328 15.2762 141.328 14.7577C141.328 14.2739 141.743 13.8591 142.226 13.8591H149.447V8.43298H142.226C138.737 8.43298 135.904 11.267 135.904 14.7577C135.904 18.2484 138.737 21.0825 142.226 21.0825H143.678C144.161 21.0825 144.576 21.4972 144.576 22.0156C144.576 22.4995 144.196 22.9142 143.678 22.9142H135.593V28.3404Z" fill="#C2410C"/>
</svg>
