<svg width="45" height="45" viewBox="0 0 45 45" fill="none" xmlns="http://www.w3.org/2000/svg">
<path d="M28.8038 9.77625C32.0379 11.2215 34.6782 13.7326 36.2836 16.8903C37.889 20.0479 38.3623 23.6608 37.6244 27.1255C36.8865 30.5901 34.9822 33.6966 32.2294 35.9261C29.4767 38.1556 26.0423 39.373 22.5 39.375C19.4697 39.3752 16.506 38.4854 13.977 36.8159C11.4479 35.1464 9.46496 32.7709 8.27426 29.9843C7.08356 27.1977 6.73758 24.1227 7.27926 21.1412C7.82095 18.1596 9.22645 15.4028 11.3212 13.2131C12.7639 15.2296 14.6682 16.8716 16.875 18.0019C16.9137 15.5243 17.4985 13.0858 18.5878 10.8602C19.6771 8.63457 21.244 6.67673 23.1769 5.12625C24.652 7.10474 26.5813 8.69955 28.8019 9.77625H28.8038Z" stroke="#8B8F89" stroke-width="2" stroke-linecap="round" stroke-linejoin="round"/>
<path d="M22.5 33.75C24.2863 33.7529 26.0068 33.0759 27.312 31.8563C28.6172 30.6368 29.4093 28.9662 29.5275 27.1838C29.6456 25.4014 29.0809 23.6408 27.9481 22.2597C26.8153 20.8785 25.1992 19.9803 23.4281 19.7475C21.4919 21.4801 20.2164 23.8305 19.8188 26.3981C18.3743 26.0442 17.0147 25.4061 15.8194 24.5212C15.4719 25.5775 15.3798 26.7011 15.5508 27.7998C15.7217 28.8985 16.1508 29.941 16.8028 30.8417C17.4549 31.7424 18.3112 32.4757 19.3016 32.9812C20.2919 33.4868 21.3881 33.7502 22.5 33.75Z" stroke="#8B8F89" stroke-width="2" stroke-linecap="round" stroke-linejoin="round"/>
</svg>
