<svg width="45" height="45" viewBox="0 0 45 45" fill="none" xmlns="http://www.w3.org/2000/svg">
<path d="M26.7187 11.4131C26.7187 10.7475 27.0675 10.1456 27.4706 9.615C27.885 9.07125 28.125 8.42625 28.125 7.73438C28.125 5.79187 26.2369 4.21875 23.9062 4.21875C21.5756 4.21875 19.6875 5.79375 19.6875 7.73438C19.6875 8.42625 19.9275 9.07125 20.3419 9.615C20.745 10.1456 21.0937 10.7475 21.0937 11.4131C21.0946 11.5739 21.0631 11.7332 21.0011 11.8816C20.9391 12.0299 20.848 12.1643 20.7331 12.2768C20.6182 12.3892 20.4819 12.4775 20.3322 12.5362C20.1825 12.595 20.0226 12.623 19.8619 12.6188C17.2531 12.5436 14.6488 12.3559 12.0562 12.0562C12.405 15.0806 12.6056 18.15 12.6469 21.2569C12.6486 21.4198 12.618 21.5815 12.5567 21.7325C12.4954 21.8835 12.4048 22.0208 12.29 22.1364C12.1752 22.2521 12.0386 22.3438 11.888 22.4062C11.7375 22.4686 11.5761 22.5005 11.4131 22.5C10.7475 22.5 10.1456 22.1512 9.615 21.7481C9.07757 21.3283 8.41631 21.0982 7.73437 21.0938C5.79187 21.0937 4.21875 22.9819 4.21875 25.3125C4.21875 27.6431 5.79375 29.5312 7.73437 29.5312C8.42625 29.5312 9.07125 29.2913 9.615 28.8769C10.1456 28.4738 10.7475 28.125 11.4131 28.125C11.9944 28.125 12.4537 28.6125 12.4106 29.1937C12.1774 32.3728 11.7756 35.5373 11.2069 38.6737C14.0531 39.03 16.9406 39.2531 19.8619 39.3375C20.0226 39.3418 20.1825 39.3137 20.3322 39.255C20.4819 39.1962 20.6182 39.108 20.7331 38.9955C20.848 38.8831 20.9391 38.7487 21.0011 38.6003C21.0631 38.452 21.0946 38.2927 21.0937 38.1319C21.0937 37.4662 20.745 36.8644 20.3419 36.3338C19.9221 35.7963 19.692 35.1351 19.6875 34.4531C19.6875 32.5125 21.5775 30.9375 23.9062 30.9375C26.2369 30.9375 28.125 32.5125 28.125 34.4531C28.125 35.145 27.885 35.79 27.4706 36.3338C27.0675 36.8644 26.7206 37.4662 26.7206 38.1319C26.7206 38.7562 27.24 39.255 27.8644 39.2194C31.2759 39.0187 34.6732 38.6243 38.04 38.0381C38.5494 35.1098 38.9136 32.1581 39.1312 29.1937C39.1411 29.0567 39.1225 28.9192 39.0766 28.7897C39.0308 28.6602 38.9587 28.5415 38.8649 28.4412C38.7711 28.3409 38.6575 28.261 38.5314 28.2066C38.4053 28.1522 38.2692 28.1244 38.1319 28.125C37.4662 28.125 36.8644 28.4738 36.3337 28.8769C35.79 29.2913 35.145 29.5312 34.4531 29.5312C32.5125 29.5312 30.9375 27.6431 30.9375 25.3125C30.9375 22.9819 32.5125 21.0938 34.4531 21.0938C35.1469 21.0938 35.79 21.3337 36.3337 21.7481C36.8644 22.1512 37.4662 22.5 38.1337 22.5C38.2967 22.5005 38.4581 22.4686 38.6087 22.4062C38.7592 22.3438 38.8958 22.2521 39.0106 22.1364C39.1254 22.0208 39.216 21.8835 39.2773 21.7325C39.3386 21.5815 39.3692 21.4198 39.3675 21.2569C39.3224 17.8966 39.0908 14.5415 38.6737 11.2069C35.1375 11.8481 31.53 12.2831 27.8625 12.4987C27.7149 12.5069 27.5672 12.4848 27.4284 12.4338C27.2897 12.3828 27.1628 12.3039 27.0557 12.2021C26.9486 12.1002 26.8634 11.9775 26.8055 11.8415C26.7475 11.7055 26.718 11.561 26.7187 11.4131Z" stroke="#8B8F89" stroke-width="2" stroke-linecap="round" stroke-linejoin="round"/>
</svg>
