<svg width="117" height="117" viewBox="0 0 117 117" fill="none" xmlns="http://www.w3.org/2000/svg">
<g clip-path="url(#clip0_41_2)">
<mask id="mask0_41_2" style="mask-type:luminance" maskUnits="userSpaceOnUse" x="0" y="0" width="117" height="117">
<path d="M0 0H117V117H0V0Z" fill="white"/>
</mask>
<g mask="url(#mask0_41_2)">
<path d="M0 78.2V83.4C1.3 92.1 29.4 117 35.9 117H81.1C87.6 117 115.7 92.1 117 83.4V78.2H0Z" fill="#7AC74F"/>
<path d="M83.9 50.4C84.1 50.2 89 46.4 89.3 41.6C89.3 40.8 88.7 40.1 87.9 40.1C87.1 40 86.4 40.7 86.3 41.5C86.1 44.9 82.1 48 82.1 48C82.1667 48 82.2667 47.9667 82.4 47.9L82.1 48C81.5 48.5 81.3 49.5 81.8 50.1C82.3 50.7 83.2 50.9 83.9 50.4Z" fill="#7AC74F"/>
<path d="M86.1999 69.9C84.4999 69.4 80.6999 69.4 79.4999 72.5C79.1999 73.2 79.4999 74.1 80.2999 74.4C80.9999 74.7 81.8999 74.3 82.1999 73.6C82.7999 72.1 85.4999 72.7 85.4999 72.7C86.2999 72.9 87.0999 72.5 87.2999 71.7C87.4999 70.9 86.9999 70.1 86.1999 69.9Z" fill="#7AC74F"/>
<path d="M114.4 63.8C109.1 66.2 102.8 72.7001 105.1 73.9001C107.4 75.1001 110.6 73.2001 114.1 70.4001C117.5 67.7001 118.3 62 114.4 63.8Z" fill="#7AC74F"/>
<path fill-rule="evenodd" clip-rule="evenodd" d="M77.4 48.6C78.3 50.4 78.2 52.4 77.2 53.7C75.4 56 71.2 56.8 67.7 55.4C66.6 55 65.3 54.4 64.9 53.2C64.4 52 64.9 50.8 65.4 49.7L65.6 49.3C67 46.1 70.2 45.6 72.5 45.6C74.5 45.5 76.4 46.6 77.4 48.6ZM74.7 49.9C74.6 49.6 73.9 48.4 72.6 48.5C69.5 48.6 68.7 49.5 68.3 50.4L68.1 50.9C67.9 51.3 67.6 51.9 67.6 52.1C67.7 52.2 68 52.4 68.8 52.7C71.2 53.7 74 53.1 74.9 51.9C75.2 51.6 75.2 50.7 74.7 49.9Z" fill="#7AC74F"/>
<path fill-rule="evenodd" clip-rule="evenodd" d="M58.5999 52.6C58.5999 52.8 58.6333 53 58.6999 53.2C58.6999 55.1 58.4999 56.5 55.2999 58.4C51.7999 60.4 50.1999 59.4 47.9999 57.5L47.4999 57.1C46.2999 56.1 45.6999 55 45.5999 53.9C45.4999 52.3 46.7999 51 47.6999 50.2C49.3999 48.4 51.2999 46.8 53.6999 47C55.5999 47.3 58.5999 50 58.5999 52.6ZM53.3999 50C52.3999 49.8 51.1999 50.7 49.6999 52.2C49.3999 52.6 48.4999 53.4 48.4999 53.8C48.5999 54 48.7999 54.3 49.3999 54.8L49.8999 55.3C51.6999 56.8 51.8999 57 53.8999 55.8C55.7999 54.7 55.7999 54.4 55.6999 53.3C55.6999 53.1 55.6999 52.8667 55.6999 52.6C55.6999 51.7 53.9999 50.1 53.3999 50Z" fill="#7AC74F"/>
<path fill-rule="evenodd" clip-rule="evenodd" d="M66.9999 64.8C66.8999 64.9 66.7999 65.3 66.7999 65.5C66.3999 67 65.5999 69.9 63.2999 71.2C60.5999 72.9 56.1999 71.7 52.7999 70.5C51.7999 70.1 51.1666 69.5 50.8999 68.7C50.5999 67.2 51.6999 66 52.7999 64.8C53.3999 64 54.1999 63.2 54.5999 62.4C56.2999 58.8 63.2999 61.5 66.2999 62.9C66.9999 63.2 67.2999 64.1 66.9999 64.8ZM63.8999 65C60.6999 63.8 57.6999 63.3 57.1999 63.7C56.5999 64.8 55.7999 65.8 54.9999 66.7C54.6999 67 54.2999 67.5 54.0999 67.8C55.6999 68.4 59.9999 69.9 61.7999 68.7C62.9999 68 63.4999 66.3 63.8999 65ZM107.2 59C106.7 59.3 106.1 59.7 105.3 60.3C101.8 62.9 99.3999 62.7 96.9999 59.6C95.1999 57.2 96.1999 55.2 96.9999 53.6C97.2666 53.1334 97.4999 52.6667 97.6999 52.2C98.3999 50.3 100.5 48.1 103 47.7C104.6 47.4 106.1 47.9 107.2 49.1L107.4 49.3C108.7 50.8 109.1 51.5 109.3 54.7C109.4 57.3 109 58 107.2 59ZM67.1999 39C67.5999 41.2 66.7999 43.1 65.0999 43.9C62.2999 45.3 56.4999 44.5 55.7999 44.4C55.1999 44.3 54.5999 43.8 54.5999 43.1C54.5999 42.7 54.2999 38.8 55.1999 36.7C56.1999 34.1 61.0999 34.5 63.0999 34.8C65.0999 35 66.6999 36.7 67.1999 39Z" fill="#7AC74F"/>
<path d="M24.4999 74.6C22.5999 70.8 21.4999 68.5 19.6999 65.3C9.99989 47.3 2.09989 33.8 -0.000111878 34.8C-0.000111878 34.8667 -0.000111878 34.9 -0.000111878 34.9C-2.10011 35.9 5.09989 51.7 14.4999 69.5C16.1999 72.7 16.9999 73.9 18.9999 77.7C18.9999 77.7 14.3999 84.4 17.6999 89.8C20.0999 93.9 28.9999 103.7 29.6999 104.2C26.2999 98 23.0999 89.5 24.7999 88.9C25.7999 88.3 31.5999 96.5 34.9999 101.6C34.9999 101.6 29.5999 86.4 30.8999 85.9C32.4999 85.2 36.8999 92.8 39.6999 99.4C39.6999 98.5 37.4999 85.4 35.7999 81C33.4999 75.1 24.4999 74.6 24.4999 74.6Z" fill="#7AC74F"/>
<path d="M97.6999 66.6C97.2999 65.7 95.6999 63.3 89.8999 64.6C89.9999 62.8 89.3999 61.1 88.0999 59.8C86.5999 58.2 84.3999 57.5 82.3999 58.2C81.2999 58.6 79.2999 59.8 78.3999 63.2C76.4999 62.5 74.5999 62.5 73.0999 63.3C71.6999 64 70.8999 65.4 70.8999 66.9C70.7999 69.2 72.5999 71.6 75.5999 73.3C76.2999 73.7 77.1999 73.5 77.5999 72.8C77.9999 72.1 77.7999 71.2 77.0999 70.8C74.5999 69.4 73.7999 67.9 73.7999 67C73.7999 66.3 74.1999 66 74.4999 65.8C75.2999 65.4 76.7999 65.4 78.7999 66.6C79.1999 66.9 79.6999 66.9 80.1999 66.7C80.5999 66.5 80.8999 66 80.9999 65.5C81.2999 63 82.0999 61.4 83.3999 61C84.1999 60.7 85.2999 61 85.9999 61.8C87.0999 62.9 87.2999 64.5 86.6999 66.1C86.3999 66.6 86.5999 67.2 86.9999 67.7C87.2999 68.1 87.8999 68.2 88.4999 68C92.7999 66.6 94.6999 67.2 94.9999 67.7C95.1999 68.3 94.2999 70.2 91.0999 71.9C90.2999 72.3 90.0999 73.2 90.3999 73.9C90.7999 74.6 91.6999 74.9 92.3999 74.5C96.5999 72.3 98.6999 69.1 97.6999 66.6ZM42.6999 65.7C43.8999 63.7 43.9999 61.3 43.4999 59.6C42.8999 57.5 41.5999 56.2 39.8999 55.9C38.7999 55.7 37.2999 56 35.5999 57.7C34.5999 56.3 33.4999 55.3 32.1999 55.1C30.8999 54.9 29.7999 55.4 28.8999 56.4C27.4999 58.1 27.3999 61.3 28.7999 64.8C29.0999 65.6 29.8999 66 30.6999 65.7C31.4999 65.4 31.7999 64.5 31.4999 63.8C30.2999 60.6 30.6999 58.8 31.1999 58.2C31.3999 58 31.4999 58 31.6999 58C32.0999 58.1 33.0999 58.8 33.8999 61C34.0999 61.5 34.4999 61.8 35.0999 61.9C35.5999 62 36.1999 61.7 36.4999 61.3C37.7999 59.3 38.8999 58.7 39.4999 58.8C39.9999 58.9 40.4999 59.5 40.6999 60.4C41.0999 61.8 40.8999 63.9 39.3999 65.2C38.9999 65.5 38.7999 66.1 38.8999 66.6C38.9999 67.1 39.3999 67.5 39.8999 67.7C43.3999 68.9 44.3999 70.5 44.1999 71.3C43.9999 72.1 42.4999 72.8 40.0999 72.5C39.2999 72.4 38.5999 72.9 38.4999 73.7C38.3999 74.5 38.8999 75.3 39.6999 75.4C44.0999 75.9 46.4999 74 46.9999 71.9C47.4999 70 46.4999 67.5 42.6999 65.7Z" fill="#7AC74F"/>
<path d="M38.0999 68.2C37.8999 68 36.3999 66 34.3999 65.7C33.4999 65.6 32.4999 65.9 31.7999 66.5C31.1999 67.1 31.0999 68 31.5999 68.6C32.1999 69.2 33.0999 69.3 33.6999 68.8C33.8999 68.6 33.9999 68.6 34.0999 68.6C34.4999 68.7 35.2999 69.4 35.6999 69.9C36.0999 70.5 36.9999 70.7 37.6999 70.2C38.3999 69.8 38.4999 68.9 38.0999 68.2Z" fill="#7AC74F"/>
</g>
</g>
<defs>
<clipPath id="clip0_41_2">
<rect width="117" height="117" fill="white"/>
</clipPath>
</defs>
</svg>
