<svg width="78" height="51" viewBox="0 0 78 51" fill="none" xmlns="http://www.w3.org/2000/svg">
<path d="M21.716 35.4764C26.311 35.4764 30.5606 33.2299 33.1172 29.4281L28.6258 26.3867C27.0711 28.7023 24.4799 30.0502 21.716 30.0502C19.5049 30.0502 17.4319 29.1862 15.8427 27.6309C14.2879 26.0757 13.4242 23.9674 13.4242 21.7555C13.4242 19.5435 14.2879 17.4353 15.8427 15.88C17.4319 14.2902 19.5049 13.4262 21.716 13.4262C24.5145 13.4262 27.1057 14.8086 28.6258 17.1242L33.1518 14.1174C30.5951 10.2811 26.311 8 21.716 8C19.8849 8 18.0884 8.38017 16.3954 9.10597C14.7371 9.7972 13.286 10.7649 12.0077 12.0437C10.7639 13.2879 9.762 14.7741 9.07102 16.3984C8.34549 18.092 8 19.8892 8 21.7555C8 23.6218 8.34549 25.419 9.07102 27.1125C9.762 28.7369 10.7639 30.1885 12.0077 31.4673C13.286 32.7115 14.7371 33.7137 16.3954 34.405C18.0884 35.1308 19.8849 35.4764 21.716 35.4764Z" fill="url(#paint0_linear_17_40)"/>
<path d="M34.4382 17.0551V35.269H39.6552V15.327L34.4382 17.0551Z" fill="url(#paint1_linear_17_40)"/>
<path d="M61.4605 21.8246C60.9768 20.6841 60.2513 19.6127 59.353 18.7141C58.4547 17.8155 57.4183 17.0897 56.2436 16.6058C54.9998 16.0874 53.7215 15.8109 52.4087 15.8109C51.0612 15.8109 49.7829 16.0874 48.5737 16.6058C47.399 17.0897 46.328 17.8155 45.4297 18.7141C44.5314 19.6127 43.8059 20.6495 43.3222 21.8246C42.804 23.0688 42.5621 24.3476 42.5621 25.6609V40.3841L47.7445 42.1122V34.3359C47.9864 34.5087 48.2628 34.6124 48.5737 34.7506C49.7829 35.269 51.0612 35.511 52.4087 35.511C53.7215 35.511 54.9998 35.269 56.2436 34.7506C57.3837 34.2667 58.4547 33.541 59.353 32.6424C60.2513 31.7438 60.9768 30.6724 61.4605 29.4973C61.9788 28.2876 62.2552 27.0088 62.2552 25.6609C62.2552 24.3476 61.9788 23.0688 61.4605 21.8246ZM52.4087 30.3267C49.8175 30.3267 47.7445 28.253 47.7445 25.6609C47.7445 23.1034 49.8175 20.9951 52.4087 20.9951C54.9653 20.9951 57.0728 23.1034 57.0728 25.6609C57.0728 28.253 54.9653 30.3267 52.4087 30.3267Z" fill="url(#paint2_linear_17_40)"/>
<path d="M64.0614 17.0551V35.269H69.2783V15.327L64.0614 17.0551Z" fill="url(#paint3_linear_17_40)"/>
<defs>
<linearGradient id="paint0_linear_17_40" x1="20.5759" y1="8" x2="20.5759" y2="35.4764" gradientUnits="userSpaceOnUse">
<stop stop-color="#06B6D4"/>
<stop offset="1" stop-color="#0E7490"/>
</linearGradient>
<linearGradient id="paint1_linear_17_40" x1="37.0467" y1="15.327" x2="37.0467" y2="35.269" gradientUnits="userSpaceOnUse">
<stop stop-color="#06B6D4"/>
<stop offset="1" stop-color="#0E7490"/>
</linearGradient>
<linearGradient id="paint2_linear_17_40" x1="52.4086" y1="15.8109" x2="52.4086" y2="42.1122" gradientUnits="userSpaceOnUse">
<stop stop-color="#06B6D4"/>
<stop offset="1" stop-color="#0E7490"/>
</linearGradient>
<linearGradient id="paint3_linear_17_40" x1="66.6699" y1="15.327" x2="66.6699" y2="35.269" gradientUnits="userSpaceOnUse">
<stop stop-color="#06B6D4"/>
<stop offset="1" stop-color="#0E7490"/>
</linearGradient>
</defs>
</svg>
